<svg xmlns="http://www.w3.org/2000/svg" viewBox="0 0 420 220"><g fill="none" stroke="#A68E98" stroke-width="2" stroke-linecap="round"><path d="M35 195C95 145 140 95 185 28"/><path d="M96 142c-24-10-35-27-28-45 24 6 36 21 28 45Z"/><path d="M120 115c20-20 40-22 54-8-16 19-35 21-54 8Z"/><path d="M145 83c-20-16-21-34-8-47 18 14 21 31 8 47Z"/><path d="M188 196C245 150 280 96 320 32"/><path d="M242 148c-22-13-30-30-20-47 22 9 32 26 20 47Z"/><path d="M280 101c18-22 38-26 53-13-14 21-33 25-53 13Z"/><path d="M307 63c-18-14-22-31-10-45 19 12 23 29 10 45Z"/></g></svg>