<svg xmlns="http://www.w3.org/2000/svg" viewBox="0 0 520 320"><rect width="520" height="320" rx="18" fill="#FAF5EC"/><g opacity=".55" stroke="#A8B0BA" stroke-width="2"><path d="M20 72h480M20 132h480M20 192h480M20 252h480"/><path d="M66 20v280M126 20v280M186 20v280M246 20v280M306 20v280M366 20v280M426 20v280"/></g><g><circle cx="180" cy="185" r="92" fill="#E4D5C3"/><circle cx="180" cy="185" r="72" fill="#F1E3CD"/><circle cx="340" cy="120" r="76" fill="#D8C5AD"/><circle cx="340" cy="120" r="59" fill="#F1E3CD"/><circle cx="372" cy="235" r="62" fill="#D8C5AD"/><circle cx="372" cy="235" r="48" fill="#F1E3CD"/></g><g fill="#253245"><circle cx="146" cy="154" r="10"/><circle cx="205" cy="145" r="9"/><circle cx="225" cy="198" r="11"/><circle cx="158" cy="220" r="8"/><circle cx="119" cy="193" r="7"/><circle cx="325" cy="94" r="8"/><circle cx="359" cy="80" r="7"/><circle cx="378" cy="126" r="8"/><circle cx="318" cy="143" r="7"/><circle cx="350" cy="219" r="7"/><circle cx="397" cy="214" r="7"/><circle cx="382" cy="254" r="8"/></g></svg>