<svg xmlns="http://www.w3.org/2000/svg" viewBox="0 0 800 60"><path d="M0 0h800v30c-10 0-10 18-20 18s-10-18-20-18-10 18-20 18-10-18-20-18-10 18-20 18-10-18-20-18-10 18-20 18-10-18-20-18-10 18-20 18-10-18-20-18-10 18-20 18-10-18-20-18-10 18-20 18-10-18-20-18-10 18-20 18-10-18-20-18-10 18-20 18-10-18-20-18-10 18-20 18-10-18-20-18-10 18-20 18-10-18-20-18-10 18-20 18-10-18-20-18-10 18-20 18-10-18-20-18-10 18-20 18-10-18-20-18-10 18-20 18-10-18-20-18-10 18-20 18-10-18-20-18-10 18-20 18-10-18-20-18-10 18-20 18-10-18-20-18-10 18-20 18-10-18-20-18-10 18-20 18-10-18-20-18-10 18-20 18-10-18-20-18-10 18-20 18-10-18-20-18-10 18-20 18-10-18-20-18-10 18-20 18-10-18-20-18-10 18-20 18-10-18-20-18-10 18-20 18V0Z" fill="#FFFDF9"/></svg>